<svg xmlns="http://www.w3.org/2000/svg" width="440.478" height="107.49" viewBox="0 0 440.478 107.49">
  <g id="LOGO_Orange_and_Blue" data-name="LOGO Orange and Blue" transform="translate(0 -2)">
    <path id="Path_1593" data-name="Path 1593" d="M71.242,58.986,50.508,38.252,29.772,58.986,50.507,79.719ZM50.508,46.658,62.836,58.986,50.508,71.307,38.179,58.986Z" fill="#ef7d00"/>
    <path id="Path_1594" data-name="Path 1594" d="M77.72,58.984,50.508,86.195,23.3,58.984,44.031,38.25H35.624L14.89,58.984,50.508,94.6,86.126,58.984l-42.1-42.1v8.406Z" fill="#ef7d00"/>
    <path id="Path_1595" data-name="Path 1595" d="M44.031,2v8.406L92.6,58.988l-42.1,42.1L8.413,58.988,29.148,38.246H20.734L0,58.988l50.508,50.5,50.5-50.5Z" fill="#ef7d00"/>
    <path id="Path_1596" data-name="Path 1596" d="M303.4,61.11c1.482-8.288,8.31-13.776,15.551-13.776,6.668,0,10.68,3.921,10.68,10.509-.1.788-.148,1.562-.2,2.328-.042.334-.092.64-.146.953H303.4V61.11ZM334.75,81.274a58.076,58.076,0,0,1-17.731,3.537c-9.891,0-15.545-4.64-15.545-12.737,0-.579,0-1.157.047-1.75h39.943a70.7,70.7,0,0,0,1.163-10.746c0-13.658-8.7-22.142-22.607-22.142-9.96,0-17.265,2.913-23.569,9.479a33.821,33.821,0,0,0-9.326,23.235c0,15.637,10.288,25.352,26.809,25.352a61.186,61.186,0,0,0,16.91-2.485C332.146,89.087,333.448,85.186,334.75,81.274Z" fill="#1b3e78" fill-rule="evenodd"/>
    <path id="Path_1597" data-name="Path 1597" d="M178.292,55.919c-.78-11.666-9.52-18.38-23.966-18.38a98.785,98.785,0,0,0-18.081,2.152L132.3,51.552a71.809,71.809,0,0,1,19.759-3.859c7.48,0,13.374,3.727,12.315,11.8-3.818-.278-7.488-.479-9.613-.479-19.954,0-31.348,7.558-30.526,20.2.62,9.575,8.5,15.218,19.606,16.011,12.551.9,23.958-1.749,30.144-5.612,1.26-8.52,2.507-17.022,3.81-25.569a39.858,39.858,0,0,0,.494-8.122M161.187,83.187c-12.606,3.551-21.557,1.622-21.981-4.974-.438-6.895,5.273-10.259,17.537-10.259a28.057,28.057,0,0,1,6.478.689Q162.207,75.906,161.187,83.187Z" fill="#1b3e78"/>
    <path id="Path_1598" data-name="Path 1598" d="M218.78,37.63c-10.586,0-18.331,2.535-24.258,7.968A32.357,32.357,0,0,0,183.95,69.382c0,7.739,2.6,14.11,7.152,18.582,4.527,4.479,11.06,7.092,18.875,7.32a76.268,76.268,0,0,0,15.559-1.322l.176-.028,4.025-12.1a39.422,39.422,0,0,1-14.586,2.215c-8.74-.653-15.308-6.839-15.308-15.962,0-11.236,8.3-19.378,20.29-19.378a34.593,34.593,0,0,1,12.551,2.7c1.085-3.287,3.523-10.594,3.523-10.594A45.4,45.4,0,0,0,218.78,37.63" fill="#1b3e78"/>
    <path id="Path_1599" data-name="Path 1599" d="M374.048,37.6c-14.244,0-23.855,6.8-23.855,16.911,0,7.39,4.1,10.948,12.16,15.287l1.6.852c4.924,2.632,7.911,4.219,7.911,7.556,0,3.962-4.191,6.227-11.589,6.227a32.372,32.372,0,0,1-14.9-3.552l-3.648,10.949a60.422,60.422,0,0,0,20.092,3.511c15.024,0,25.172-7.119,25.172-17.67,0-7.376-4.3-11.222-11.737-15.295-.995-.545-2.033-1.066-3-1.6-4.826-2.549-7.529-3.956-7.529-7.111,0-3.579,3.72-5.808,9.66-5.808a34.041,34.041,0,0,1,14.292,3.461l3.532-10.592A60.85,60.85,0,0,0,374.048,37.6" fill="#1b3e78"/>
    <path id="Path_1600" data-name="Path 1600" d="M270.619,37.63c-10.578,0-18.323,2.535-24.258,7.968a32.353,32.353,0,0,0-10.572,23.784c0,7.739,2.6,14.11,7.152,18.582s11.061,7.092,18.874,7.32a76.272,76.272,0,0,0,15.56-1.322l.174-.028,4.033-12.1A39.459,39.459,0,0,1,267,84.044c-8.748-.653-15.316-6.839-15.316-15.962,0-11.236,8.3-19.378,20.29-19.378a34.593,34.593,0,0,1,12.551,2.7c1.085-3.287,3.523-10.594,3.523-10.594a45.415,45.415,0,0,0-17.427-3.183" fill="#1b3e78"/>
    <path id="Path_1601" data-name="Path 1601" d="M422.312,37.6c-14.243,0-23.854,6.8-23.854,16.911,0,7.39,4.1,10.948,12.16,15.287l1.6.852c4.924,2.632,7.911,4.219,7.911,7.556,0,3.962-4.193,6.227-11.589,6.227a32.38,32.38,0,0,1-14.9-3.552L390,91.831a60.453,60.453,0,0,0,20.1,3.511c15.022,0,25.17-7.119,25.17-17.67,0-7.376-4.3-11.222-11.735-15.295-1-.545-2.033-1.066-3-1.6C415.7,58.224,413,56.817,413,53.662c0-3.579,3.719-5.808,9.66-5.808a34.043,34.043,0,0,1,14.291,3.461l3.532-10.592A60.83,60.83,0,0,0,422.312,37.6" fill="#1b3e78"/>
  </g>
</svg>
