<svg width="423" height="451" viewBox="0 0 423 451" fill="none" xmlns="http://www.w3.org/2000/svg">
<path d="M184.333 35.6432V0.452026L422.872 239.029L211.449 450.452L0 239.029L86.8016 152.194H122.026L35.2205 239.029L211.449 415.257L387.681 239.029L184.333 35.6432Z" fill="#EF7D00"/>
<path d="M325.371 239.012L211.45 352.929L97.5288 239.012L184.335 152.21H149.139L62.3377 239.012L211.45 388.124L360.563 239.012L184.335 62.7795V97.9707L325.371 239.012Z" fill="#EF7D00"/>
<path fill-rule="evenodd" clip-rule="evenodd" d="M298.251 239.02L211.449 152.218L124.639 239.02L211.445 325.817L298.251 239.02ZM211.449 187.409L263.059 239.02L211.449 290.601L159.835 239.02L211.449 187.409Z" fill="#EF7D00"/>
</svg>
